# xmcd
#
# Track frame offsets: 
#        150
#        33965
#        56591
#        84079
#        110853
#        137185
#        162237
#        188461
#        207871
#        232792
#        250985
#        275161
#        297964
#
# Disc length: 4367 seconds
#
# Revision: 0
# Processed by: cddbd v1.5.2PL0 Copyright (c) Steve Scherf et al.
# Submitted via: ExactAudioCopy v0.99pb5
#
DISCID=b4110d0d
DTITLE=Robbie Steininger - Stonecutters Gears
DYEAR=2011
DGENRE=Blues
TTITLE0=Saturday Delivery
TTITLE1=Spank the Monkey
TTITLE2=Something Like The Blues
TTITLE3=Left At The Light
TTITLE4=Moses
TTITLE5=Motion One
TTITLE6=Angel Eyes
TTITLE7=Burn in Daylight
TTITLE8=Entropy
TTITLE9=Sign of the Times
TTITLE10=Salsa for Letty V
TTITLE11=Build a Fire
TTITLE12=Yo! Porter
EXTD=
EXTT0=
EXTT1=
EXTT2=
EXTT3=
EXTT4=
EXTT5=
EXTT6=
EXTT7=
EXTT8=
EXTT9=
EXTT10=
EXTT11=
EXTT12=
PLAYORDER=
